<?xml version="1.0" encoding="utf-8"?>
<!-- Generator: Adobe Illustrator 15.0.0, SVG Export Plug-In  -->
<!DOCTYPE svg PUBLIC "-//W3C//DTD SVG 1.1//EN" "http://www.w3.org/Graphics/SVG/1.1/DTD/svg11.dtd" [
	<!ENTITY ns_flows "http://ns.adobe.com/Flows/1.0/">
]>
<svg version="1.1"
	 xmlns="http://www.w3.org/2000/svg" xmlns:xlink="http://www.w3.org/1999/xlink" xmlns:a="http://ns.adobe.com/AdobeSVGViewerExtensions/3.0/"
	 x="0px" y="0px" width="1081px" height="1081px" viewBox="-38.999 -39 1081 1081"
	 overflow="visible" enable-background="new -38.999 -39 1081 1081" xml:space="preserve">
<defs>
</defs>
<circle fill="#FFCC66" stroke="#000000" stroke-width="3" stroke-linecap="round" stroke-linejoin="round" cx="501.501" cy="501.501" r="500.001"/>
<circle fill="#FFCC66" stroke="#000000" stroke-width="6" stroke-linecap="round" stroke-linejoin="round" cx="501.501" cy="501.501" r="475"/>
<circle fill="#FFCC66" stroke="#000000" stroke-width="6" stroke-linecap="round" stroke-linejoin="round" cx="501.501" cy="501.501" r="375"/>
<circle fill="#FFCC66" stroke="#000000" stroke-width="3" stroke-linecap="round" stroke-linejoin="round" cx="501.501" cy="501.501" r="262.5"/>
<circle fill="none" cx="501.501" cy="501.499" r="425.001"/>
<text transform="matrix(0.7369 0.676 -0.676 0.7369 167.6201 817.752)"><tspan x="0" y="0" font-family="'UmbaSlab-Bold'" font-size="93.75">Y</tspan><tspan x="67.437" y="0.391" font-family="'UmbaSlab-Bold'" font-size="93.75" rotate="-9.299">O</tspan><tspan x="150.779" y="-13.454" font-family="'UmbaSlab-Bold'" font-size="93.75" rotate="-20.176">U</tspan><tspan x="229.152" y="-44.126" font-family="'UmbaSlab-Bold'" font-size="93.75" rotate="-26.897"> </tspan><tspan x="249.105" y="-52.704" font-family="'UmbaSlab-Bold'" font-size="93.75" rotate="-32.761">A</tspan><tspan x="312.561" y="-94.189" font-family="'UmbaSlab-Bold'" font-size="93.75" rotate="-41.606">R</tspan><tspan x="367.634" y="-144.096" font-family="'UmbaSlab-Bold'" font-size="93.75" rotate="-50.777">E</tspan><tspan x="405.977" y="-192.328" font-family="'UmbaSlab-Bold'" font-size="93.75" rotate="-55.935"> </tspan><tspan x="419.51" y="-209.708" font-family="'UmbaSlab-Bold'" font-size="93.75" rotate="-62.004">H</tspan><tspan x="456.961" y="-280.592" font-family="'UmbaSlab-Bold'" font-size="93.75" rotate="-72.255">O</tspan><tspan x="482.489" y="-361.055" font-family="'UmbaSlab-Bold'" font-size="93.75" rotate="-83.071">U</tspan><tspan x="491.164" y="-445.894" fill="none" font-family="'UmbaSlab-Bold'" font-size="93.75" rotate="-90.665">I</tspan><tspan x="490.77" y="-477.082" font-family="'UmbaSlab-Bold'" font-size="93.75" rotate="-93.719"> </tspan></text>
<circle fill="none" cx="501.501" cy="501.499" r="425.001"/>
<text transform="matrix(-0.3906 -0.9206 0.9206 -0.3906 153.1504 682.4561)"><tspan x="0" y="0" font-family="'UmbaSlab-Bold'" font-size="93.75">T</tspan><tspan x="53.845" y="-1.18" font-family="'UmbaSlab-Bold'" font-size="93.75" rotate="9.01">H</tspan><tspan x="121.505" y="9.412" font-family="'UmbaSlab-Bold'" font-size="93.75" rotate="18.175">E</tspan><tspan x="177.737" y="28.65" font-family="'UmbaSlab-Bold'" font-size="93.75" rotate="23.921"> </tspan><tspan x="196.951" y="37.079" font-family="'UmbaSlab-Bold'" font-size="93.75" rotate="26.817"> </tspan><tspan x="213.846" y="43.599" font-family="'UmbaSlab-Bold'" font-size="93.75" rotate="33.289">H</tspan><tspan x="270.933" y="79.981" font-family="'UmbaSlab-Bold'" font-size="93.75" rotate="43.494">O</tspan><tspan x="322.988" y="127.882" font-family="'UmbaSlab-Bold'" font-size="93.75" rotate="54.238">U</tspan><tspan x="367.841" y="189.444" font-family="'UmbaSlab-Bold'" font-size="93.75" rotate="64.716">N</tspan><tspan x="397.105" y="253.447" font-family="'UmbaSlab-Bold'" font-size="93.75" rotate="72.039">I</tspan><tspan x="408.081" y="282.039" font-family="'UmbaSlab-Bold'" font-size="93.75" rotate="79.311">V</tspan><tspan x="420.84" y="348.678" font-family="'UmbaSlab-Bold'" font-size="93.75" rotate="88.426">E</tspan><tspan x="423.282" y="405.536" font-family="'UmbaSlab-Bold'" font-size="93.75" rotate="97.349">R</tspan><tspan x="415.386" y="469.386" font-family="'UmbaSlab-Bold'" font-size="93.75" rotate="106.324">S</tspan><tspan x="397.621" y="527.073" font-family="'UmbaSlab-Bold'" font-size="93.75" rotate="112.064">I</tspan><tspan x="386.778" y="555.948" font-family="'UmbaSlab-Bold'" font-size="93.75" rotate="119.207">T</tspan><tspan x="360.749" y="603.788" font-family="'UmbaSlab-Bold'" font-size="93.75" rotate="127.432">Y</tspan><tspan x="323.822" y="650.731" font-family="'UmbaSlab-Bold'" font-size="93.75" rotate="133.207"> </tspan><tspan x="309.631" y="665.942" font-family="'UmbaSlab-Bold'" font-size="93.75" rotate="136.276"> </tspan><tspan x="298.136" y="679.68" font-family="'UmbaSlab-Bold'" font-size="93.75" rotate="143.003">O</tspan><tspan x="240.682" y="722.88" font-family="'UmbaSlab-Bold'" font-size="93.75" rotate="152.225">F</tspan><tspan x="189.364" y="749.103" font-family="'UmbaSlab-Bold'" font-size="93.75" rotate="157.774"> </tspan><tspan x="170.092" y="757.052" font-family="'UmbaSlab-Bold'" font-size="93.75" rotate="160.805"> </tspan><tspan x="152.93" y="764.369" font-family="'UmbaSlab-Bold'" font-size="93.75" rotate="166.507">Y</tspan><tspan x="97.936" y="778.866" font-family="'UmbaSlab-Bold'" font-size="93.75" rotate="175.893">O</tspan><tspan x="27.457" y="785.027" font-family="'UmbaSlab-Bold'" font-size="93.75" rotate="-173.335">U</tspan><tspan x="-48.616" y="776.009" font-family="'UmbaSlab-Bold'" font-size="93.75" rotate="-163.512">S</tspan><tspan x="-104.923" y="759.688" font-family="'UmbaSlab-Bold'" font-size="93.75" rotate="-155.358">T</tspan><tspan x="-154.38" y="738.495" font-family="'UmbaSlab-Bold'" font-size="93.75" rotate="-146.214">O</tspan><tspan x="-213.831" y="699.484" font-family="'UmbaSlab-Bold'" font-size="93.75" rotate="-135.977">N</tspan></text>
<g>
	<circle fill="none" cx="501.501" cy="501.501" r="318.75"/>
	<text transform="matrix(0.6475 -0.762 0.762 0.6475 266.9287 326.9883)"><tspan x="0" y="0" font-family="'Yomogi-Regular'" font-size="75">E</tspan><tspan x="33.02" y="-0.253" font-family="'Yomogi-Regular'" font-size="75" rotate="6.433">S</tspan><tspan x="65.881" y="3.199" font-family="'Yomogi-Regular'" font-size="75" rotate="12.875">T</tspan><tspan x="98.102" y="10.302" font-family="'Yomogi-Regular'" font-size="75" rotate="19.335">A</tspan><tspan x="129.334" y="20.99" font-family="'Yomogi-Regular'" font-size="75" rotate="25.831">B</tspan><tspan x="159.119" y="35.119" font-family="'Yomogi-Regular'" font-size="75" rotate="32.346">L</tspan><tspan x="187.114" y="52.544" font-family="'Yomogi-Regular'" font-size="75" rotate="38.861">I</tspan><tspan x="212.99" y="73.074" font-family="'Yomogi-Regular'" font-size="75" rotate="45.334">S</tspan><tspan x="236.4" y="96.413" font-family="'Yomogi-Regular'" font-size="75" rotate="51.709">H</tspan><tspan x="257.084" y="122.197" font-family="'Yomogi-Regular'" font-size="75" rotate="58.153">E</tspan><tspan x="274.699" y="150.062" font-family="'Yomogi-Regular'" font-size="75" rotate="64.654">D</tspan><tspan x="289.124" y="179.243" font-family="'Yomogi-Regular'" font-size="75" rotate="71.825"> </tspan><tspan x="301.684" y="217.268" font-family="'Yomogi-Regular'" font-size="75" rotate="78.976">2</tspan><tspan x="308.244" y="249.625" font-family="'Yomogi-Regular'" font-size="75" rotate="85.444">0</tspan><tspan x="311.118" y="282.523" font-family="'Yomogi-Regular'" font-size="75" rotate="91.886">2</tspan><tspan x="310.281" y="315.56" font-family="'Yomogi-Regular'" font-size="75" rotate="98.323">3</tspan></text>
</g>
<circle fill="none" cx="501.501" cy="501.501" r="318.75"/>
<text transform="matrix(0.4728 0.8811 -0.8811 0.4728 187.793 648.25)"><tspan x="0" y="0" font-family="'Yomogi-Regular'" font-size="75">E</tspan><tspan x="46.323" y="-0.37" font-family="'Yomogi-Regular'" font-size="75" rotate="-8.283"> </tspan><tspan x="99.385" y="-9.006" font-family="'Yomogi-Regular'" font-size="75" rotate="-16.525">P</tspan><tspan x="142.792" y="-22.425" font-family="'Yomogi-Regular'" font-size="75" rotate="-24.009">L</tspan><tspan x="184.135" y="-41.411" font-family="'Yomogi-Regular'" font-size="75" rotate="-31.529">U</tspan><tspan x="222.668" y="-65.672" font-family="'Yomogi-Regular'" font-size="75" rotate="-39.095">R</tspan><tspan x="257.694" y="-94.822" font-family="'Yomogi-Regular'" font-size="75" rotate="-46.694">I</tspan><tspan x="288.551" y="-128.344" font-family="'Yomogi-Regular'" font-size="75" rotate="-54.271">B</tspan><tspan x="314.037" y="-164.997" font-family="'Yomogi-Regular'" font-size="75" rotate="-60.852">U</tspan><tspan x="335.721" y="-205.774" font-family="'Yomogi-Regular'" font-size="75" rotate="-69.183">S</tspan><tspan x="351.852" y="-249.235" font-family="'Yomogi-Regular'" font-size="75" rotate="-77.513"> </tspan><tspan x="362.6" y="-302.05" font-family="'Yomogi-Regular'" font-size="75" rotate="-85.874">H</tspan><tspan x="365.344" y="-347.491" font-family="'Yomogi-Regular'" font-size="75" rotate="-93.431">O</tspan><tspan x="362.096" y="-392.859" font-family="'Yomogi-Regular'" font-size="75" rotate="-100.944">U</tspan><tspan x="352.957" y="-437.385" font-family="'Yomogi-Regular'" font-size="75" rotate="-108.43">N</tspan><tspan x="338.092" y="-480.345" font-family="'Yomogi-Regular'" font-size="75" rotate="-115.923">U</tspan><tspan x="317.734" y="-521.031" font-family="'Yomogi-Regular'" font-size="75" rotate="-123.453">M</tspan></text>
<text transform="matrix(1 0 0 1 815.126 774.2695)" font-family="'AppleSymbols'" font-size="87.5">★</text>
<text transform="matrix(1 0 0 1 129.6025 774.2695)" font-family="'AppleSymbols'" font-size="87.5">★</text>
<g>
	<g>
		<polygon points="754.912,534.506 731.389,489.802 731.389,415.689 719.625,415.689 687.865,398.045 641.982,408.636 
			493.768,365.113 493.768,272.181 369.074,272.181 369.074,489.802 227.913,489.802 227.913,500.393 277.322,545.098 
			297.32,556.859 312.609,601.553 366.719,629.793 389.072,594.502 403.186,589.791 436.127,592.146 463.182,621.557 
			483.176,665.08 509.648,695.664 530.234,746.25 563.17,762.715 620.811,769.775 607.869,712.129 625.518,680.369 652.574,661.555 
			747.857,605.088 738.449,592.146 		"/>
		<polygon fill="none" stroke="#000000" stroke-width="10" stroke-linecap="round" stroke-linejoin="round" points="
			754.912,534.506 731.389,489.802 731.389,415.689 719.625,415.689 687.865,398.045 641.982,408.636 493.768,365.113 
			493.768,272.181 369.074,272.181 369.074,489.802 227.913,489.802 227.913,500.393 277.322,545.098 297.32,556.859 
			312.609,601.553 366.719,629.793 389.072,594.502 403.186,589.791 436.127,592.146 463.182,621.557 483.176,665.08 
			509.648,695.664 530.234,746.25 563.17,762.715 620.811,769.775 607.869,712.129 625.518,680.369 652.574,661.555 
			747.857,605.088 738.449,592.146 		"/>
	</g>
	<g>
		<polygon fill="#FFCC66" points="742.787,522.38 719.263,477.677 719.263,403.564 707.5,403.564 675.739,385.92 629.856,396.511 
			481.643,352.987 481.643,260.056 356.948,260.056 356.948,477.677 215.788,477.677 215.788,488.268 265.196,532.972 
			285.194,544.734 300.484,589.428 354.594,617.668 376.947,582.376 391.061,577.666 424.001,580.021 451.057,609.431 
			471.051,652.954 497.522,683.539 518.109,734.125 551.045,750.59 608.686,757.649 595.744,700.004 613.392,668.243 
			640.448,649.429 735.732,592.962 726.323,580.021 		"/>
		<polygon fill="none" stroke="#000000" stroke-width="10" stroke-linecap="round" stroke-linejoin="round" points="742.787,522.38 
			719.263,477.677 719.263,403.564 707.5,403.564 675.739,385.92 629.856,396.511 481.643,352.987 481.643,260.056 356.948,260.056 
			356.948,477.677 215.788,477.677 215.788,488.268 265.196,532.972 285.194,544.734 300.484,589.428 354.594,617.668 
			376.947,582.376 391.061,577.666 424.001,580.021 451.057,609.431 471.051,652.954 497.522,683.539 518.109,734.125 
			551.045,750.59 608.686,757.649 595.744,700.004 613.392,668.243 640.448,649.429 735.732,592.962 726.323,580.021 		"/>
	</g>
</g>
<path fill="#231F20" d="M649.787,528.409c0,6.331,1.969,12.196,5.315,17.037l24.707,49.412l24.706-49.412
	c3.345-4.841,5.313-10.706,5.313-17.037c0-16.576-13.438-30.021-30.02-30.021S649.787,511.833,649.787,528.409z M691.813,528.409
	c0,6.635-5.37,12.012-12.004,12.012c-6.636,0-12.013-5.377-12.013-12.012c0-6.628,5.377-12.005,12.013-12.005
	C686.443,516.404,691.813,521.781,691.813,528.409z"/>
</svg>
